<?xml version="1.0" encoding="UTF-8" standalone="no"?>
<!-- Created with Inkscape (http://www.inkscape.org/) -->

<svg
   width="93.092873mm"
   height="110.00605mm"
   viewBox="0 0 93.092873 110.00605"
   version="1.1"
   id="svg5"
   xml:space="preserve"
   xmlns="http://www.w3.org/2000/svg"
   xmlns:svg="http://www.w3.org/2000/svg"><defs
     id="defs2" /><g
     id="layer2"
     transform="translate(-54.296792,-30.833732)"><path
       id="path13019"
       style="opacity:1;fill:none;stroke:#02568b;stroke-width:2.051;stroke-linecap:round;stroke-linejoin:bevel;stroke-dasharray:none;stroke-opacity:1;paint-order:stroke fill markers;image-rendering:auto"
       d="M 95.030548,122.26861 C 72.515244,119.16234 55.322288,99.914302 55.322289,77.249671 c 0,-25.068445 20.380414,-45.390436 45.520931,-45.390438 25.14052,-3e-6 45.52094,20.321989 45.52094,45.390438 v 0 c 0,19.812799 -12.88774,37.336449 -31.83872,43.291579" /><path
       style="opacity:1;fill:none;stroke:#069bbf;stroke-width:2.051;stroke-linecap:round;stroke-linejoin:bevel;stroke-dasharray:none;stroke-opacity:1;paint-order:stroke fill markers"
       d="m 100.60201,131.13617 0.0803,-80.754813"
       id="path13056" /><path
       style="opacity:1;fill:none;stroke:#069bbf;stroke-width:2.051;stroke-linecap:round;stroke-linejoin:bevel;stroke-dasharray:none;stroke-opacity:1;paint-order:stroke fill markers"
       d="m 100.66227,81.196748 c -0.10098,-3.553203 -0.690805,-7.092183 -1.747676,-10.48607 -0.623038,-2.000735 -1.412535,-3.960747 -2.511032,-5.745242 -0.875778,-1.422691 -1.947514,-2.734534 -2.631561,-4.258712 -0.671592,-1.496426 -0.943153,-3.143925 -1.04459,-4.781007 -0.0742,-1.197444 -0.06076,-2.400309 0.04017,-3.595797"
       id="path13060" /><path
       style="opacity:1;fill:none;stroke:#069bbf;stroke-width:2.051;stroke-linecap:round;stroke-linejoin:bevel;stroke-dasharray:none;stroke-opacity:1;paint-order:stroke fill markers"
       d="m 97.76697,67.55238 c -0.841773,-1.895527 -1.977552,-3.660152 -3.354245,-5.211384 -1.183478,-1.333521 -2.53704,-2.503562 -3.806628,-3.755379 -1.060696,-1.045849 -2.066411,-2.153196 -2.92681,-3.369168 -1.00595,-1.421674 -1.808144,-2.987289 -2.374488,-4.634209"
       id="path13064" /><path
       style="opacity:1;fill:none;stroke:#72ab50;stroke-width:2.051;stroke-linecap:round;stroke-linejoin:bevel;stroke-dasharray:none;stroke-opacity:1;paint-order:stroke fill markers"
       d="m 106.46778,139.81429 c 0.0428,-21.65519 0.003,-43.310547 -0.12053,-64.965431 -0.009,-1.561667 -0.018,-3.126945 0.14057,-4.680564 0.20604,-2.018418 0.69664,-4.008662 1.46644,-5.885861 0.71952,-1.754591 1.68243,-3.409173 2.85254,-4.901537"
       id="path13068" /><path
       style="opacity:1;fill:none;stroke:#72ab50;stroke-width:1.951;stroke-linecap:round;stroke-linejoin:bevel;stroke-dasharray:none;stroke-opacity:1;paint-order:stroke fill markers"
       d="m 106.47844,117.21309 c -0.0499,-2.17725 0.34201,-4.3637 1.14503,-6.38807 0.57024,-1.43754 1.3459,-2.7928 2.29005,-4.01766 0.9892,-1.2833 2.16352,-2.42368 3.47527,-3.37482"
       id="path13072" /><path
       style="opacity:1;fill:none;stroke:#72ab50;stroke-width:2.051;stroke-linecap:round;stroke-linejoin:bevel;stroke-dasharray:none;stroke-opacity:1;paint-order:stroke fill markers"
       d="m 106.44769,106.48787 c 0.0904,-2.42246 0.81,-4.81876 2.0691,-6.890272 1.06922,-1.759116 2.51183,-3.272542 4.11809,-4.560036 0.95871,-0.768447 1.97654,-1.459421 2.99315,-2.149446 1.61277,-1.094668 3.2395,-2.200954 4.58013,-3.615885 1.6217,-1.71158 2.78411,-3.85434 3.33464,-6.147008"
       id="path13076" /><path
       style="opacity:1;fill:none;stroke:#72ab50;stroke-width:2.051;stroke-linecap:round;stroke-linejoin:bevel;stroke-dasharray:none;stroke-opacity:1;paint-order:stroke fill markers"
       d="m 110.66623,96.805329 c 1.3378,-1.412414 3.11634,-2.401286 5.02206,-2.79227 1.24578,-0.255588 2.53503,-0.260088 3.79669,-0.100438 1.26676,0.160295 2.51259,0.485295 3.69623,0.964237"
       id="path13080" /><path
       style="opacity:1;fill:none;stroke:#72ab50;stroke-width:2.051;stroke-linecap:round;stroke-linejoin:bevel;stroke-dasharray:none;stroke-opacity:1;paint-order:stroke fill markers"
       d="m 112.70002,95.060088 c 1.29711,-0.836523 2.66866,-1.557588 4.09312,-2.151883 1.78903,-0.746397 3.65543,-1.291029 5.46401,-1.988738 1.81463,-0.700045 3.58888,-1.566339 5.08233,-2.812357 1.26802,-1.057939 2.31466,-2.380004 3.05342,-3.856944"
       id="path13084" /><path
       style="opacity:1;fill:none;stroke:#72ab50;stroke-width:2.051;stroke-linecap:round;stroke-linejoin:bevel;stroke-dasharray:none;stroke-opacity:1;paint-order:stroke fill markers"
       d="m 106.46778,99.79848 c 0.12732,-2.641336 0.70029,-5.260641 1.68742,-7.713893 0.81882,-2.034979 1.91637,-3.94747 3.11368,-5.785418 0.88122,-1.35272 1.82395,-2.679111 2.47085,-4.158272 0.86944,-1.988023 1.17223,-4.22018 0.8638,-6.367978"
       id="path13088" /><path
       style="opacity:1;fill:none;stroke:#72ab50;stroke-width:2.051;stroke-linecap:round;stroke-linejoin:bevel;stroke-dasharray:none;stroke-opacity:1;paint-order:stroke fill markers"
       d="m 111.18852,86.39961 c 0.13861,-0.16908 0.27924,-0.336499 0.42186,-0.502209 1.55239,-1.80373 3.33256,-3.396681 5.14259,-4.941712 0.92711,-0.791374 1.86556,-1.573564 2.71192,-2.450768 1.75217,-1.816028 3.0882,-4.031202 3.87703,-6.428241"
       id="path13092" /><ellipse
       style="opacity:1;fill:#02568b;fill-opacity:1;stroke:#02568b;stroke-width:0.551;stroke-linecap:round;stroke-linejoin:bevel;stroke-dasharray:none;stroke-opacity:1;paint-order:stroke fill markers"
       id="path13096"
       cx="79.147751"
       cy="60.947784"
       rx="1.8882965"
       ry="1.9686495" /><ellipse
       style="fill:#069bbf;fill-opacity:1;stroke:#069bbf;stroke-width:0.551;stroke-linecap:round;stroke-linejoin:bevel;stroke-dasharray:none;stroke-opacity:1;paint-order:stroke fill markers"
       id="path13096-7"
       cx="100.73864"
       cy="43.4375"
       rx="1.8882965"
       ry="1.9686495" /><ellipse
       style="fill:#72ab50;fill-opacity:1;stroke:#72ab50;stroke-width:0.551;stroke-linecap:round;stroke-linejoin:bevel;stroke-dasharray:none;stroke-opacity:1;paint-order:stroke fill markers"
       id="path13096-7-4"
       cx="114.11932"
       cy="69.602272"
       rx="1.8882965"
       ry="1.9686495" /><path
       style="opacity:1;fill:none;fill-opacity:1;stroke:#02568b;stroke-width:2.051;stroke-linecap:round;stroke-linejoin:bevel;stroke-dasharray:none;stroke-opacity:1;paint-order:stroke fill markers"
       d="m 95.178178,122.29733 c -0.208239,-9.11833 -0.235029,-18.24081 -0.08035,-27.360212 0.02181,-1.28563 0.04721,-2.571995 10e-7,-3.856943 -0.07686,-2.091882 -0.348768,-4.186417 -0.964239,-6.187185 -0.809774,-2.632409 -2.211284,-5.072396 -4.017652,-7.151421 -1.075714,-1.238084 -2.310305,-2.362591 -3.759115,-3.131331 -2.374268,-1.259789 -5.153604,-1.487168 -7.673297,-2.422777 -3.165691,-1.17548 -5.88672,-3.509095 -7.530906,-6.458672"
       id="path17663" /><path
       style="opacity:1;fill:none;fill-opacity:1;stroke:#02568b;stroke-width:2.051;stroke-linecap:round;stroke-linejoin:bevel;stroke-dasharray:none;stroke-opacity:1;paint-order:stroke fill markers"
       d="M 94.494211,86.211764 C 94.249949,84.8727 93.84553,83.562926 93.29232,82.319256 92.927581,81.499287 92.498726,80.708482 92.151152,79.881091 91.197086,77.609963 90.878548,75.075741 91.240879,72.639149"
       id="path17716" /><path
       style="opacity:1;fill:none;fill-opacity:1;stroke:#02568b;stroke-width:2.051;stroke-linecap:round;stroke-linejoin:bevel;stroke-dasharray:none;stroke-opacity:1;paint-order:stroke fill markers"
       d="m 93.972884,84.290341 c -0.371961,-1.667629 -1.103159,-3.254189 -2.129356,-4.6203 -1.430065,-1.903754 -3.384416,-3.337994 -5.039962,-5.04929 C 85.377645,73.146812 84.175283,71.46783 83.125222,69.706264 82.511463,68.676632 81.948096,67.616963 81.43781,66.53232"
       id="path17724" /><path
       style="opacity:1;fill:none;fill-opacity:1;stroke:#02568b;stroke-width:2.051;stroke-linecap:round;stroke-linejoin:bevel;stroke-dasharray:none;stroke-opacity:1;paint-order:stroke fill markers"
       d="m 72.154594,72.438267 c 2.131938,-0.166122 4.279374,-0.132786 6.405128,0.09943 0.677377,0.074 1.352553,0.168134 2.024336,0.282247"
       id="path17740" /><path
       style="opacity:1;fill:none;fill-opacity:1;stroke:#02568b;stroke-width:2.051;stroke-linecap:round;stroke-linejoin:bevel;stroke-dasharray:none;stroke-opacity:1;paint-order:stroke fill markers"
       d="m 84.317759,81.340204 c 1.121787,0.252513 2.203731,0.681207 3.194035,1.26556 1.639484,0.967417 3.009216,2.34924 4.120701,3.894687 2.396332,3.331942 3.621931,7.488903 3.416476,11.587931"
       id="path17744" /></g></svg>
